External Loads File
version=1
nRows=69
nColumns=13
Range=5.000000e-03-10 seconds
endheader
time 	forceRightX 	forceRightY 	forceRightZ 	pointRightX 	pointRightY 	pointRightZ 	forceLeftX 	forceLeftY 	forceLeftZ 	pointLeftX 	pointLeftY 	pointLeftZ 		
7.505000 -255.024183 666.541716 -0.000000 0.414211 0.367759 -0.110455 63.120846 -9.682921 -0.000000 0.133684 0.250470 -0.355345
7.510000 -264.430982 693.317475 -0.000000 0.416522 0.356852 -0.110303 63.790481 -7.572275 -0.000000 0.131932 0.260557 -0.355326
7.515000 -271.064650 722.060896 -0.000000 0.418353 0.345744 -0.110114 63.688867 -7.199990 -0.000000 0.130740 0.270812 -0.355340
7.520000 -274.254995 752.833617 -0.000000 0.419603 0.334515 -0.109951 62.620643 -8.210477 -0.000000 0.130155 0.281304 -0.355383
7.525000 -274.509676 784.953554 -0.000000 0.420150 0.323374 -0.109943 60.528632 -10.070057 -0.000000 0.130243 0.291810 -0.355395
7.530000 -271.522232 817.918545 -0.000000 0.420120 0.312262 -0.109988 57.424816 -12.392540 -0.000000 0.130906 0.302222 -0.355546
7.535000 -264.226968 851.425034 -0.000000 0.419663 0.301068 -0.110261 53.332963 -14.999153 -0.000000 0.132169 0.312746 -0.355651
7.540000 -253.311917 884.493534 -0.000000 0.418564 0.289994 -0.110310 48.302591 -17.746393 -0.000000 0.134025 0.323297 -0.355785
7.545000 -238.780612 916.256376 -0.000000 0.416764 0.279063 -0.110246 42.339380 -20.612131 -0.000000 0.136488 0.333838 -0.355860
7.550000 -219.675455 946.006864 -0.000000 0.414385 0.268282 -0.109849 35.391965 -23.560996 -0.000000 0.139589 0.344662 -0.356032
7.555000 -200.013098 971.940421 -0.000000 0.411308 0.257821 -0.109917 27.556450 -26.283674 -0.000000 0.143123 0.354759 -0.355908
7.560000 -176.893904 994.001385 -0.000000 0.407647 0.247616 -0.109758 18.852185 -28.669222 -0.000000 0.147315 0.364979 -0.355856
7.565000 -151.940141 1011.226067 -0.000000 0.403655 0.237588 -0.109648 9.549450 -30.420183 -0.000000 0.151976 0.375044 -0.355778
7.570000 -125.178027 1023.095236 -0.000000 0.399283 0.227928 -0.109494 -0.021370 -31.308778 -0.000000 0.157119 0.385267 -0.355640
7.575000 -98.985452 1028.921811 -0.000000 0.394419 0.218619 -0.109303 -9.447738 -31.145988 -0.000000 0.162723 0.394892 -0.355525
7.580000 -70.592092 1028.692151 -0.000000 0.389018 0.209618 -0.109095 -18.537080 -29.712953 -0.000000 0.169289 0.404432 -0.355426
7.585000 -45.509804 1021.781275 -0.000000 0.383275 0.201246 -0.109019 -26.932665 -26.855667 -0.000000 0.175507 0.413503 -0.355196
7.590000 -21.875464 1008.256370 -0.000000 0.377057 0.193370 -0.108866 -34.552320 -22.308766 -0.000000 0.181814 0.422197 -0.354771
7.595000 1.548238 988.006401 -0.000000 0.370453 0.185852 -0.108649 -41.309902 -15.784004 -0.000000 0.188651 0.430484 -0.354728
7.600000 23.253857 960.892775 -0.000000 0.363528 0.178990 -0.108429 -47.095386 -7.162905 -0.000000 0.195815 0.438161 -0.354692
7.605000 44.143297 926.816136 -0.000000 0.356281 0.172529 -0.108298 -51.869289 3.633126 -0.000000 0.203365 0.445283 -0.354873
7.610000 63.625501 885.719800 -0.000000 0.348754 0.166641 -0.108121 -55.580472 16.447749 -0.000000 0.211160 0.451933 -0.354912
7.615000 81.510929 837.623666 -0.000000 0.341012 0.161145 -0.107928 -58.175983 30.973066 -0.000000 0.219135 0.458051 -0.355190
7.620000 96.957833 782.789030 -0.000000 0.333055 0.156311 -0.107812 -59.644729 46.748688 -0.000000 0.227113 0.463463 -0.355513
7.625000 110.637993 721.584664 -0.000000 0.324962 0.152209 -0.107765 -59.973382 63.433838 -0.000000 0.235323 0.468517 -0.355777
7.630000 122.579020 654.703923 -0.000000 0.316520 0.148589 -0.107704 -59.258361 80.773207 -0.000000 0.243553 0.473005 -0.355957
7.635000 132.080866 583.251335 -0.000000 0.307925 0.145877 -0.107564 -57.830999 98.669469 -0.000000 0.251605 0.477117 -0.356174
7.640000 140.021540 508.282951 -0.000000 0.299129 0.143677 -0.107157 -55.908027 117.444203 -0.000000 0.259747 0.480570 -0.356078
7.645000 146.557578 431.210191 -0.000000 0.290026 0.142290 -0.107031 -53.781523 137.581898 -0.000000 0.267932 0.483481 -0.356355
7.650000 151.439322 353.777891 -0.000000 0.280529 0.141583 -0.106712 -51.863752 159.646635 -0.000000 0.275855 0.485040 -0.356510
7.655000 154.255527 277.977372 -0.000000 0.271279 0.141387 -0.106778 -50.737695 184.168879 -0.000000 0.283658 0.486421 -0.356756
7.660000 155.383664 205.428951 -0.000000 0.261824 0.142128 -0.106757 -50.557140 211.649446 -0.000000 0.291309 0.487069 -0.356925
7.665000 154.600751 137.866373 -0.000000 0.252248 0.143368 -0.106655 -51.624482 242.208082 -0.000000 0.298896 0.486928 -0.357223
7.670000 151.627631 77.006178 -0.000000 0.242845 0.144993 -0.106382 -54.473733 275.492279 -0.000000 0.306399 0.486039 -0.357482
7.675000 146.531381 24.175278 -0.000000 0.233683 0.146998 -0.106131 -59.515755 310.711952 -0.000000 0.313717 0.484199 -0.357828
7.680000 139.601496 -19.858938 -0.000000 0.224701 0.149900 -0.105957 -66.768208 346.731024 -0.000000 0.320919 0.481570 -0.358269
7.685000 131.301409 -54.662885 -0.000000 0.215946 0.153281 -0.105941 -76.407952 382.150235 -0.000000 0.328061 0.478148 -0.358726
7.690000 122.312686 -80.362734 -0.000000 0.207345 0.157362 -0.106020 -88.359543 415.661265 -0.000000 0.335079 0.474013 -0.359216
7.695000 113.380213 -97.552230 -0.000000 0.198870 0.162195 -0.105945 -102.396106 446.272341 -0.000000 0.341976 0.469226 -0.359759
7.700000 105.169851 -107.188082 -0.000000 0.190641 0.167514 -0.105884 -118.184625 473.463177 -0.000000 0.348999 0.463815 -0.360123
7.705000 98.178986 -110.451188 -0.000000 0.182623 0.173441 -0.105626 -135.329093 497.208059 -0.000000 0.355818 0.457619 -0.360478
7.710000 92.685186 -108.609928 -0.000000 0.174995 0.179810 -0.105610 -153.345835 517.859847 -0.000000 0.362624 0.450854 -0.360729
7.715000 88.730870 -102.916646 -0.000000 0.167900 0.186852 -0.105566 -171.579413 536.021228 -0.000000 0.369219 0.443538 -0.360961
7.720000 86.257439 -94.465092 -0.000000 0.161239 0.194305 -0.105549 -189.684501 552.313557 -0.000000 0.375368 0.435834 -0.361172
7.725000 84.940548 -84.360208 -0.000000 0.155000 0.202244 -0.105558 -206.411034 567.785312 -0.000000 0.381255 0.427586 -0.361132
7.730000 84.570491 -73.417680 -0.000000 0.149367 0.210701 -0.105663 -221.422746 583.313135 -0.000000 0.386808 0.418809 -0.361475
7.735000 84.991799 -62.201166 -0.000000 0.144325 0.219427 -0.105726 -235.203006 599.498890 -0.000000 0.391746 0.409660 -0.361673
7.740000 85.862571 -51.353522 -0.000000 0.139808 0.228607 -0.105752 -246.650876 617.515147 -0.000000 0.396408 0.400034 -0.361878
7.745000 87.056636 -41.098268 -0.000000 0.135932 0.238006 -0.105822 -256.414618 637.742294 -0.000000 0.400672 0.390002 -0.362202
7.750000 88.372278 -31.675950 -0.000000 0.132622 0.247798 -0.105904 -263.902612 660.879345 -0.000000 0.404696 0.379542 -0.362353
7.755000 89.747354 -23.007952 -0.000000 0.130023 0.257710 -0.106009 -270.153113 686.797692 -0.000000 0.408150 0.368697 -0.362550
7.760000 91.086685 -15.131462 -0.000000 0.128037 0.267797 -0.106148 -275.111115 715.663251 -0.000000 0.411195 0.357597 -0.362793
7.765000 92.322838 -8.074301 -0.000000 0.126789 0.278077 -0.106343 -278.967707 747.413022 -0.000000 0.413736 0.346291 -0.363071
7.770000 93.357627 -1.817028 -0.000000 0.126264 0.288215 -0.106438 -282.869006 781.476449 -0.000000 0.415743 0.334993 -0.363128
7.775000 94.016038 3.183097 -0.000000 0.126238 0.298619 -0.106479 -284.707979 818.210259 -0.000000 0.417136 0.323472 -0.362815
7.780000 94.071653 6.756009 -0.000000 0.126986 0.309072 -0.106656 -285.383789 856.505236 -0.000000 0.417758 0.312082 -0.363087
7.785000 93.197853 8.613205 -0.000000 0.128293 0.319531 -0.106875 -285.109293 895.222781 -0.000000 0.417617 0.301127 -0.363202
7.790000 91.004841 8.408775 -0.000000 0.130146 0.330023 -0.106944 -282.804057 933.533154 -0.000000 0.416490 0.290488 -0.363106
7.795000 87.078954 5.979101 -0.000000 0.132719 0.340427 -0.107082 -277.366941 970.656537 -0.000000 0.415054 0.279782 -0.363444
7.800000 81.055578 1.427767 -0.000000 0.135780 0.350790 -0.107159 -268.256138 1005.742321 -0.000000 0.413046 0.268965 -0.362942
7.805000 72.719053 -4.888954 -0.000000 0.139513 0.361121 -0.107417 -255.624160 1037.757779 -0.000000 0.410648 0.258171 -0.362735
7.810000 62.061674 -12.537992 -0.000000 0.143829 0.371496 -0.107683 -238.692251 1065.771500 -0.000000 0.407769 0.247372 -0.362607
7.815000 49.323163 -20.872132 -0.000000 0.148784 0.381268 -0.107963 -219.312262 1088.091815 -0.000000 0.404395 0.236696 -0.362601
7.820000 34.914154 -29.459785 -0.000000 0.154260 0.391026 -0.108344 -196.424359 1103.652927 -0.000000 0.400428 0.226586 -0.362547
7.825000 19.418886 -37.845423 -0.000000 0.160154 0.400465 -0.108712 -170.651751 1111.130804 -0.000000 0.395949 0.216913 -0.362450
7.830000 3.536522 -45.656753 -0.000000 0.166489 0.409731 -0.109229 -143.309242 1109.437885 -0.000000 0.391475 0.207790 -0.364171
7.835000 -11.528524 -52.722578 -0.000000 0.173306 0.418637 -0.109479 -126.507913 1096.800080 -0.000000 0.391322 0.199263 -0.369958
7.840000 -27.218895 -58.229908 -0.000000 0.180073 0.427160 -0.110051 -80.935319 1077.390556 -0.000000 0.379591 0.191003 -0.362119
7.845000 -41.114150 -62.329458 -0.000000 0.187005 0.435456 -0.111143 -50.830158 1046.929940 -0.000000 0.373469 0.183038 -0.362039
